<svg xmlns="http://www.w3.org/2000/svg" viewBox="0 0 1024 1024" width="1024" height="1024" role="img" aria-labelledby="title desc">
  <title id="title">XR Runtime Manager icon</title>
  <desc id="desc">A purple line drawing of a VR HMD with a gear next to it</desc>
  <path fill="#782B90" fill-rule="evenodd" d="M 727.43 573.76 L 721.68 580.46 L 717.85 607.27 L 712.11 614.93 L 701.57 617.8 L 688.17 624.5 L 684.34 624.5 L 659.45 606.31 L 651.79 606.31 L 616.36 640.78 L 614.45 649.39 L 630.72 673.33 L 631.68 680.99 L 624.02 697.27 L 623.06 703.01 L 619.23 707.8 L 589.55 713.54 L 584.77 716.41 L 582.85 720.24 L 582.85 770.99 L 589.55 776.73 L 615.4 780.56 L 622.11 785.35 L 631.68 809.29 L 631.68 815.03 L 615.4 838.97 L 615.4 847.59 L 648.91 881.1 L 658.49 883.01 L 684.34 864.82 L 688.17 864.82 L 698.7 870.56 L 711.15 874.39 L 716.89 879.18 L 721.68 906.95 L 724.55 910.78 L 728.38 912.69 L 777.21 912.69 L 783.91 906.95 L 788.7 880.14 L 793.49 875.35 L 821.26 864.82 L 845.19 882.05 L 853.81 883.01 L 890.19 847.59 L 890.19 838.97 L 874.87 815.99 L 873.91 809.29 L 886.36 782.48 L 916.04 776.73 L 921.79 771.95 L 922.74 721.2 L 921.79 718.33 L 916.04 713.54 L 888.28 708.76 L 883.49 703.97 L 873.91 680.03 L 873.91 675.24 L 890.19 652.27 L 891.15 643.65 L 855.72 607.27 L 847.11 606.31 L 822.21 624.5 L 817.43 624.5 L 802.11 616.84 L 794.45 614.93 L 789.66 611.1 L 783.91 579.5 L 780.09 574.71 Z M 746.57 667.59 L 759.02 667.59 L 774.34 670.46 L 790.62 677.16 L 803.06 685.78 L 819.34 704.93 L 826.04 718.33 L 829.87 734.61 L 828.91 761.41 L 823.17 778.65 L 816.47 790.14 L 794.45 811.2 L 781.04 817.9 L 761.89 822.69 L 743.7 822.69 L 730.3 819.82 L 707.32 808.33 L 688.17 788.22 L 679.55 770.99 L 675.72 755.67 L 675.72 734.61 L 677.64 725.99 L 685.3 706.84 L 694.87 693.44 L 714.98 677.16 L 734.13 669.5 Z M 715.94 502.9 L 715.94 508.65 L 718.81 515.35 L 726.47 520.14 L 787.74 520.14 L 796.36 513.44 L 798.28 507.69 L 798.28 502.9 L 794.45 495.24 L 784.87 490.46 L 729.34 490.46 L 721.68 493.33 Z M 223.81 503.86 L 225.72 513.44 L 234.34 520.14 L 295.62 520.14 L 301.36 517.27 L 306.15 509.61 L 306.15 501.95 L 303.28 496.2 L 292.74 490.46 L 237.21 490.46 L 230.51 493.33 L 225.72 498.12 Z M 101.26 415.78 L 100.3 559.39 L 102.21 570.88 L 107.96 584.29 L 119.45 596.73 L 129.98 602.48 L 140.51 605.35 L 156.79 606.31 L 161.57 622.59 L 169.23 639.82 L 181.68 658.01 L 195.09 671.41 L 221.89 687.69 L 247.74 695.35 L 266.89 697.27 L 377 697.27 L 396.15 694.39 L 409.55 689.61 L 424.87 680.03 L 439.23 665.67 L 461.26 637.9 L 473.7 626.41 L 486.15 619.71 L 500.51 615.88 L 519.66 615.88 L 533.06 619.71 L 543.6 625.46 L 559.87 640.78 L 589.55 676.2 L 610.62 689.61 L 613.49 689.61 L 613.49 687.69 L 598.17 665.67 L 591.47 648.44 L 591.47 635.03 L 579.98 620.67 L 564.66 605.35 L 555.09 598.65 L 538.81 590.99 L 522.53 587.16 L 497.64 587.16 L 475.62 592.9 L 464.13 598.65 L 451.68 607.27 L 438.28 620.67 L 417.21 647.48 L 407.64 657.05 L 397.11 663.76 L 385.62 667.59 L 255.4 667.59 L 234.34 661.84 L 216.15 651.31 L 206.57 642.69 L 195.09 627.37 L 189.34 615.88 L 183.6 593.86 L 183.6 433.01 L 187.43 415.78 L 194.13 404.29 L 208.49 390.88 L 228.6 383.22 L 785.83 382.27 L 797.32 384.18 L 812.64 390.88 L 820.3 396.63 L 831.79 410.99 L 836.57 423.44 L 837.53 590.03 L 858.6 593.86 L 884.45 603.44 L 888.28 603.44 L 901.68 596.73 L 912.21 586.2 L 917.96 574.71 L 920.83 564.18 L 920.83 418.65 L 917.96 407.16 L 911.26 394.71 L 897.85 383.22 L 883.49 377.48 L 851.89 376.52 L 839.45 346.84 L 829.87 334.39 L 809.77 317.16 L 785.83 303.76 L 755.19 292.27 L 717.85 282.69 L 667.11 274.07 L 624.02 270.24 L 621.15 265.46 L 611.57 175.46 L 605.83 137.16 L 600.09 126.63 L 591.47 118.01 L 573.28 110.35 L 451.68 110.35 L 443.06 112.27 L 433.49 117.05 L 422 128.54 L 416.26 142.9 L 401.89 268.33 L 399.98 270.24 L 370.3 272.16 L 308.06 281.73 L 265.94 292.27 L 233.38 304.71 L 207.53 320.03 L 189.34 337.27 L 181.68 347.8 L 169.23 376.52 L 143.38 376.52 L 125.19 382.27 L 109.87 395.67 Z M 862.43 405.24 L 876.79 405.24 L 883.49 408.12 L 890.19 414.82 L 893.06 423.44 L 893.06 560.35 L 890.19 568.01 L 883.49 574.71 L 872.96 577.59 L 868.17 577.59 L 866.26 575.67 L 866.26 429.18 L 861.47 410.03 Z M 144.34 405.24 L 160.62 406.2 L 156.79 419.61 L 154.87 436.84 L 153.91 576.63 L 139.55 575.67 L 131.89 568.97 L 129.02 563.22 L 129.02 420.56 L 131.89 413.86 L 137.64 408.12 Z M 212.32 354.5 L 228.6 340.14 L 250.62 328.65 L 274.55 320.03 L 322.43 308.54 L 368.38 301.84 L 421.04 297.05 L 468.91 295.14 L 553.17 295.14 L 601.04 297.05 L 653.7 301.84 L 692.96 307.59 L 729.34 315.24 L 760.94 324.82 L 784.87 335.35 L 807.85 352.59 L 808.81 356.41 L 805.94 357.37 L 788.7 353.54 L 234.34 353.54 L 213.28 357.37 Z M 445.94 143.86 L 454.55 138.12 L 569.45 138.12 L 575.19 140.99 L 579.98 148.65 L 592.43 267.37 L 461.26 266.41 L 431.57 268.33 L 430.62 263.54 L 444.02 147.69 Z"/>
</svg>
